<svg xmlns="http://www.w3.org/2000/svg" viewBox="0 0 200 200" width="200" height="200">
  <rect width="200" height="200" rx="16" fill="#0f172a"/>
  <!-- Network graph nodes -->
  <circle cx="85" cy="80" r="6" fill="#06b6d4" opacity="0.7"/>
  <circle cx="115" cy="70" r="5" fill="#06b6d4" opacity="0.6"/>
  <circle cx="70" cy="110" r="5" fill="#06b6d4" opacity="0.5"/>
  <circle cx="105" cy="105" r="7" fill="#06b6d4"/>
  <circle cx="130" cy="95" r="4" fill="#06b6d4" opacity="0.5"/>
  <circle cx="90" cy="130" r="4" fill="#06b6d4" opacity="0.4"/>
  <circle cx="120" cy="120" r="5" fill="#06b6d4" opacity="0.6"/>
  <circle cx="60" cy="85" r="4" fill="#06b6d4" opacity="0.3"/>
  <!-- Network connections -->
  <line x1="85" y1="80" x2="115" y2="70" stroke="#06b6d4" stroke-width="1" opacity="0.3"/>
  <line x1="85" y1="80" x2="105" y2="105" stroke="#06b6d4" stroke-width="1" opacity="0.3"/>
  <line x1="85" y1="80" x2="70" y2="110" stroke="#06b6d4" stroke-width="1" opacity="0.3"/>
  <line x1="115" y1="70" x2="130" y2="95" stroke="#06b6d4" stroke-width="1" opacity="0.3"/>
  <line x1="115" y1="70" x2="105" y2="105" stroke="#06b6d4" stroke-width="1" opacity="0.3"/>
  <line x1="105" y1="105" x2="120" y2="120" stroke="#06b6d4" stroke-width="1" opacity="0.3"/>
  <line x1="105" y1="105" x2="70" y2="110" stroke="#06b6d4" stroke-width="1" opacity="0.3"/>
  <line x1="105" y1="105" x2="130" y2="95" stroke="#06b6d4" stroke-width="1" opacity="0.3"/>
  <line x1="70" y1="110" x2="90" y2="130" stroke="#06b6d4" stroke-width="1" opacity="0.2"/>
  <line x1="60" y1="85" x2="85" y2="80" stroke="#06b6d4" stroke-width="1" opacity="0.2"/>
  <line x1="60" y1="85" x2="70" y2="110" stroke="#06b6d4" stroke-width="1" opacity="0.2"/>
  <!-- Magnifying glass -->
  <circle cx="98" cy="95" r="35" fill="none" stroke="#ffffff" stroke-width="2.5" opacity="0.9"/>
  <circle cx="98" cy="95" r="33" fill="#0f172a" opacity="0.3"/>
  <line x1="123" y1="120" x2="152" y2="149" stroke="#ffffff" stroke-width="4" stroke-linecap="round" opacity="0.9"/>
  <!-- Highlight glow inside magnifier -->
  <circle cx="98" cy="95" r="32" fill="#06b6d4" opacity="0.05"/>
  <!-- Glint on glass -->
  <path d="M78 78 C82 72 90 68 96 68" fill="none" stroke="#ffffff" stroke-width="1.5" stroke-linecap="round" opacity="0.4"/>
</svg>