<svg xmlns="http://www.w3.org/2000/svg" viewBox="0 0 200 200" width="200" height="200">
  <rect width="200" height="200" rx="16" fill="#0f172a"/>
  <!-- Center hub -->
  <circle cx="100" cy="100" r="16" fill="#ec4899" opacity="0.2" stroke="#ec4899" stroke-width="2"/>
  <circle cx="100" cy="100" r="6" fill="#ec4899"/>
  <!-- Connection lines -->
  <line x1="100" y1="84" x2="100" y2="48" stroke="#ec4899" stroke-width="1.5" opacity="0.4"/>
  <line x1="114" y1="92" x2="148" y2="62" stroke="#ec4899" stroke-width="1.5" opacity="0.4"/>
  <line x1="116" y1="100" x2="155" y2="100" stroke="#ec4899" stroke-width="1.5" opacity="0.4"/>
  <line x1="114" y1="108" x2="148" y2="138" stroke="#ec4899" stroke-width="1.5" opacity="0.4"/>
  <line x1="100" y1="116" x2="100" y2="152" stroke="#ec4899" stroke-width="1.5" opacity="0.4"/>
  <line x1="86" y1="108" x2="52" y2="138" stroke="#ec4899" stroke-width="1.5" opacity="0.4"/>
  <line x1="84" y1="100" x2="45" y2="100" stroke="#ec4899" stroke-width="1.5" opacity="0.4"/>
  <line x1="86" y1="92" x2="52" y2="62" stroke="#ec4899" stroke-width="1.5" opacity="0.4"/>
  <!-- Chat bubble top -->
  <rect x="82" y="30" width="36" height="24" rx="6" fill="none" stroke="#ffffff" stroke-width="2"/>
  <path d="M95 54 L100 60 L105 54" fill="none" stroke="#ffffff" stroke-width="2" stroke-linejoin="round"/>
  <line x1="90" y1="39" x2="110" y2="39" stroke="#ffffff" stroke-width="1.5" opacity="0.4" stroke-linecap="round"/>
  <line x1="90" y1="45" x2="104" y2="45" stroke="#ffffff" stroke-width="1.5" opacity="0.4" stroke-linecap="round"/>
  <!-- Chat bubble top-right -->
  <rect x="138" y="44" width="30" height="22" rx="6" fill="none" stroke="#ffffff" stroke-width="1.5" opacity="0.8"/>
  <line x1="144" y1="52" x2="162" y2="52" stroke="#ec4899" stroke-width="1.5" opacity="0.3" stroke-linecap="round"/>
  <line x1="144" y1="58" x2="156" y2="58" stroke="#ec4899" stroke-width="1.5" opacity="0.3" stroke-linecap="round"/>
  <!-- Chat bubble right -->
  <rect x="148" y="88" width="28" height="24" rx="6" fill="none" stroke="#ffffff" stroke-width="1.5" opacity="0.8"/>
  <line x1="154" y1="97" x2="170" y2="97" stroke="#ec4899" stroke-width="1.5" opacity="0.3" stroke-linecap="round"/>
  <line x1="154" y1="103" x2="164" y2="103" stroke="#ec4899" stroke-width="1.5" opacity="0.3" stroke-linecap="round"/>
  <!-- Chat bubble bottom-right -->
  <rect x="138" y="130" width="30" height="22" rx="6" fill="none" stroke="#ffffff" stroke-width="1.5" opacity="0.7"/>
  <line x1="144" y1="138" x2="162" y2="138" stroke="#ec4899" stroke-width="1.5" opacity="0.3" stroke-linecap="round"/>
  <line x1="144" y1="144" x2="156" y2="144" stroke="#ec4899" stroke-width="1.5" opacity="0.3" stroke-linecap="round"/>
  <!-- Chat bubble bottom -->
  <rect x="82" y="148" width="36" height="22" rx="6" fill="none" stroke="#ffffff" stroke-width="1.5" opacity="0.7"/>
  <line x1="90" y1="156" x2="110" y2="156" stroke="#ec4899" stroke-width="1.5" opacity="0.3" stroke-linecap="round"/>
  <line x1="90" y1="162" x2="104" y2="162" stroke="#ec4899" stroke-width="1.5" opacity="0.3" stroke-linecap="round"/>
  <!-- Chat bubble bottom-left -->
  <rect x="32" y="130" width="30" height="22" rx="6" fill="none" stroke="#ffffff" stroke-width="1.5" opacity="0.6"/>
  <line x1="38" y1="138" x2="56" y2="138" stroke="#ec4899" stroke-width="1.5" opacity="0.3" stroke-linecap="round"/>
  <line x1="38" y1="144" x2="50" y2="144" stroke="#ec4899" stroke-width="1.5" opacity="0.3" stroke-linecap="round"/>
  <!-- Chat bubble left -->
  <rect x="24" y="88" width="28" height="24" rx="6" fill="none" stroke="#ffffff" stroke-width="1.5" opacity="0.6"/>
  <line x1="30" y1="97" x2="46" y2="97" stroke="#ec4899" stroke-width="1.5" opacity="0.3" stroke-linecap="round"/>
  <line x1="30" y1="103" x2="40" y2="103" stroke="#ec4899" stroke-width="1.5" opacity="0.3" stroke-linecap="round"/>
  <!-- Chat bubble top-left -->
  <rect x="32" y="44" width="30" height="22" rx="6" fill="none" stroke="#ffffff" stroke-width="1.5" opacity="0.7"/>
  <line x1="38" y1="52" x2="56" y2="52" stroke="#ec4899" stroke-width="1.5" opacity="0.3" stroke-linecap="round"/>
  <line x1="38" y1="58" x2="50" y2="58" stroke="#ec4899" stroke-width="1.5" opacity="0.3" stroke-linecap="round"/>
</svg>