<svg xmlns="http://www.w3.org/2000/svg" viewBox="0 0 200 200" width="200" height="200">
  <rect width="200" height="200" rx="16" fill="#0f172a"/>
  <!-- Shield -->
  <path d="M100 35 L145 58 L145 105 C145 138 122 160 100 170 C78 160 55 138 55 105 L55 58 Z" fill="#f59e0b" opacity="0.1" stroke="#f59e0b" stroke-width="2.5"/>
  <!-- Shield checkmark -->
  <polyline points="85,100 95,112 118,85" fill="none" stroke="#ffffff" stroke-width="3" stroke-linecap="round" stroke-linejoin="round"/>
  <!-- Blocked node top-left -->
  <circle cx="38" cy="45" r="10" fill="none" stroke="#f59e0b" stroke-width="1.5" opacity="0.5"/>
  <line x1="31" y1="38" x2="45" y2="52" stroke="#ef4444" stroke-width="2" stroke-linecap="round" opacity="0.7"/>
  <line x1="45" y1="38" x2="31" y2="52" stroke="#ef4444" stroke-width="2" stroke-linecap="round" opacity="0.7"/>
  <!-- Blocked node top-right -->
  <circle cx="162" cy="45" r="10" fill="none" stroke="#f59e0b" stroke-width="1.5" opacity="0.5"/>
  <line x1="155" y1="38" x2="169" y2="52" stroke="#ef4444" stroke-width="2" stroke-linecap="round" opacity="0.7"/>
  <line x1="169" y1="38" x2="155" y2="52" stroke="#ef4444" stroke-width="2" stroke-linecap="round" opacity="0.7"/>
  <!-- Blocked node bottom-left -->
  <circle cx="35" cy="155" r="10" fill="none" stroke="#f59e0b" stroke-width="1.5" opacity="0.5"/>
  <line x1="28" y1="148" x2="42" y2="162" stroke="#ef4444" stroke-width="2" stroke-linecap="round" opacity="0.7"/>
  <line x1="42" y1="148" x2="28" y2="162" stroke="#ef4444" stroke-width="2" stroke-linecap="round" opacity="0.7"/>
  <!-- Blocked node bottom-right -->
  <circle cx="165" cy="155" r="10" fill="none" stroke="#f59e0b" stroke-width="1.5" opacity="0.5"/>
  <line x1="158" y1="148" x2="172" y2="162" stroke="#ef4444" stroke-width="2" stroke-linecap="round" opacity="0.7"/>
  <line x1="172" y1="148" x2="158" y2="162" stroke="#ef4444" stroke-width="2" stroke-linecap="round" opacity="0.7"/>
  <!-- Connection lines (blocked) -->
  <line x1="48" y1="52" x2="70" y2="72" stroke="#f59e0b" stroke-width="1" opacity="0.2" stroke-dasharray="4,4"/>
  <line x1="152" y1="52" x2="130" y2="72" stroke="#f59e0b" stroke-width="1" opacity="0.2" stroke-dasharray="4,4"/>
  <line x1="45" y1="148" x2="70" y2="130" stroke="#f59e0b" stroke-width="1" opacity="0.2" stroke-dasharray="4,4"/>
  <line x1="155" y1="148" x2="130" y2="130" stroke="#f59e0b" stroke-width="1" opacity="0.2" stroke-dasharray="4,4"/>
</svg>