<svg xmlns="http://www.w3.org/2000/svg" viewBox="0 0 200 200" width="200" height="200">
  <rect width="200" height="200" rx="16" fill="#0f172a"/>
  <!-- Gear -->
  <g transform="translate(75, 75)">
    <path d="M25 0 L29 0 L31 8 L38 11 L45 6 L48 9 L43 16 L46 23 L54 25 L54 29 L46 31 L43 38 L48 45 L45 48 L38 43 L31 46 L29 54 L25 54 L23 46 L16 43 L9 48 L6 45 L11 38 L8 31 L0 29 L0 25 L8 23 L11 16 L6 9 L9 6 L16 11 L23 8 Z" fill="none" stroke="#f97316" stroke-width="2"/>
    <circle cx="27" cy="27" r="10" fill="none" stroke="#f97316" stroke-width="2"/>
  </g>
  <!-- Code brackets left -->
  <path d="M42 85 L28 100 L42 115" fill="none" stroke="#ffffff" stroke-width="3" stroke-linecap="round" stroke-linejoin="round"/>
  <!-- Code brackets right -->
  <path d="M158 85 L172 100 L158 115" fill="none" stroke="#ffffff" stroke-width="3" stroke-linecap="round" stroke-linejoin="round"/>
  <!-- Wrench -->
  <g transform="translate(100, 100) rotate(45)">
    <rect x="-4" y="5" width="8" height="35" rx="2" fill="none" stroke="#f97316" stroke-width="2" opacity="0.8"/>
    <path d="M-8 5 C-8 -5 8 -5 8 5" fill="none" stroke="#f97316" stroke-width="2" opacity="0.8"/>
    <circle cx="0" cy="0" r="3" fill="#f97316" opacity="0.5"/>
  </g>
  <!-- Accent dots -->
  <circle cx="50" cy="55" r="2" fill="#f97316" opacity="0.4"/>
  <circle cx="150" cy="55" r="2" fill="#f97316" opacity="0.4"/>
  <circle cx="50" cy="145" r="2" fill="#f97316" opacity="0.4"/>
  <circle cx="150" cy="145" r="2" fill="#f97316" opacity="0.4"/>
</svg>